<?xml version="1.0" encoding="utf-8"?><svg width="47" height="360" viewBox="0 0 47 360" xmlns="http://www.w3.org/2000/svg" xmlns:xlink="http://www.w3.org/1999/xlink"><svg preserveAspectRatio="xMidYMid" width="46" height="40" viewBox="0 0 46 40" id="icon__advantages--digger"><defs><style>.acls-1{fill:#000;fill-rule:evenodd}</style></defs><path d="M43.02 40l-3.024-4.35-3.177-.05-3.352 4.4h-8.57l6.973-12.35 1.928.82 3.23-4.77 2.655.768L46 40h-2.98zm-21.93-6.71l1.616-2.87-8.75-4.875 2.084 6.36L14.555 40h-3.328l1.376-7.017-2.292-6.155-2.498.05-.886 5.798L4.366 40H.922l2.41-7.222.47-9.438L0 22.314l.104-6.207 4.74-4.155 2.29.205 1.814-1.575C7.732 9.852 6.926 8.58 6.926 7.13c0-.255.026-.504.074-.746l8.72.957c-.103 1.912-1.608 3.477-3.576 3.822l.51 1.508 2.865.154.832 7.54 1.198 4.053-2.812-1.488-.573-1.745-.52-3.744-1.042 3.95.52 1.847 10.364 5.9 1.51-2.72L28.8 28.47l-3.907 6.822-3.802-2zM4.063 16.826L2.5 18.26v1.745l1.718.41-.156-3.59zM6.306 5.32C6.406 2.365 8.754 0 11.64 0c2.947 0 5.337 2.47 5.337 5.514 0 .317-.027.626-.076.928L6.307 5.32zm33.17 31.15L41.972 40h-7.695l3.01-3.53h2.187z" class="acls-1"/></svg><svg preserveAspectRatio="xMidYMid" width="42" height="40" viewBox="0 0 42 40" id="icon__advantages--fencing" y="40"><defs><style>.bcls-1{fill:#000;fill-rule:evenodd}</style></defs><path d="M0 22.743v-11.87h42v11.87H0zm8.375-10.35l-5.32 8.83h4.66l5.32-8.83h-4.66zm12.58 0l-5.32 8.83h5.06l5.322-8.83h-5.062zm12.98 0l-5.32 8.83h4.862l5.32-8.83h-4.86zM37.49 8.18h-1.855v1.845h-3.61V8.18h-1.753c-1.522 0-2.757-1.23-2.757-2.744V2.743C27.515 1.228 28.75 0 30.272 0h7.217c1.522 0 2.756 1.228 2.756 2.743v2.693c0 1.515-1.234 2.744-2.757 2.744zm1.002-5.337c0-.55-.45-.998-1.003-.998H30.27c-.554 0-1.002.447-1.002.998v2.593c0 .55.448.998 1.002.998h7.217c.553 0 1.002-.447 1.002-.998V2.843zM11.978 8.18h-1.854v1.845h-3.61V8.18H4.762c-1.52 0-2.755-1.23-2.755-2.744V2.743C2.005 1.228 3.24 0 4.76 0h7.218c1.523 0 2.757 1.228 2.757 2.743v2.693c0 1.515-1.234 2.744-2.757 2.744zm1.003-5.337c0-.55-.448-.998-1.002-.998H4.76c-.552 0-1 .447-1 .998v2.593c0 .55.448.998 1 .998h7.218c.554 0 1.003-.447 1.003-.998V2.843zm-2.054 28.08h20.298V23.54h5.313V40h-5.313v-3.69H10.926V40H5.613V23.54h5.313v7.383z" class="bcls-1"/></svg><svg preserveAspectRatio="xMidYMid" width="42" height="40" viewBox="0 0 42 40" id="icon__advantages--keys" y="80"><defs><style>.ccls-1{fill:#000;fill-rule:evenodd}</style></defs><path d="M38.885 17.9h-5.34l-9.7-9.68.134-5.26L26.96.045 32.21 0l9.612 9.635.178 5.172-3.115 3.094zm-8.978-1.158l-2.685 2.668-4.932-4.878 2.695-2.677 4.922 4.887zm-.81 7.453c.77-.24 1.594-.372 2.446-.372 4.498 0 8.143 3.622 8.143 8.09 0 1.343-.33 2.61-.915 3.727.072.053-3.89-5.452-3.89-5.452l-4.582.132-1.69 4.022s3.673 5.683 3.674 5.625c-.243.022-.49.033-.74.033-4.496 0-8.14-3.62-8.14-8.088 0-1.067.207-2.086.585-3.018l-12.905-12.82c-.912.352-1.903.545-2.94.545-4.496 0-8.14-3.622-8.14-8.09 0-1.337.325-2.598.903-3.71.8 1.175 3.896 5.788 3.896 5.788l4.54-.177 1.735-4.33S8.07 1.905 7.038.515c.362-.05.73-.074 1.105-.074 4.497 0 8.143 3.62 8.143 8.09 0 .884-.144 1.736-.41 2.534l13.22 13.13zm-9.93 3.216l-9.6 9.535-4.92-4.888 9.663-9.598 4.856 4.95z" class="ccls-1"/></svg><svg preserveAspectRatio="xMidYMid" width="31" height="40" viewBox="0 0 31 40" id="icon__advantages--worker" y="120"><defs><style>.dcls-1{fill:#000;fill-rule:evenodd}</style></defs><path d="M30.995 40H.006c-.042-3.485.173-9.495 2.018-11.626.757-.874 1.487-2.202 6.598-1.79.973-.85 1.67-1.796 1.998-2.13.56 1.11 2.53 1.93 4.883 1.942v-.013c2.354-.01 4.325-.834 4.884-1.945.327.336 1.025 1.282 1.997 2.134 5.11-.414 5.84.916 6.597 1.79 1.845 2.134 2.06 8.15 2.018 11.638zm-7.33-26.525c.538.43.883 1.094.883 1.837v.424c0 1.216-.92 2.216-2.104 2.342-.63 3.432-2.92 6.75-6.99 6.75-4.095 0-6.478-3.216-7.004-6.813-1.012-.264-1.76-1.184-1.76-2.28v-.423c0-.743.345-1.406.883-1.837h16.093zm-.23-1.46H5.983V9.14h1.308c.782-2.988 2.55-5.132 5.1-6.083v6.036c0 .91.738 1.65 1.65 1.65h3.203c.91 0 1.65-.74 1.65-1.65V3.01c2.598.914 4.022 3.048 4.942 6.13h1.465v2.874h-1.868zM17.29 9.752h-3.44c-.39 0-.706-.317-.706-.707V.706c0-.39.316-.706.706-.706h3.44c.39 0 .707.316.707.707v8.34c0 .39-.318.706-.708.706z" class="dcls-1"/></svg><svg preserveAspectRatio="xMidYMid" width="13" height="19" viewBox="0 0 13 19" id="icon__arrow--right" y="160"><defs><style>.ecls-1{fill:#fff;fill-rule:evenodd}</style></defs><path d="M2.873 19L13 9.5 2.873 0 0 2.695 7.254 9.5 0 16.305 2.873 19z" class="ecls-1"/></svg><svg preserveAspectRatio="xMidYMid" width="13" height="19" viewBox="0 0 13 19" id="icon__arrow--right-black" y="179"><defs><style>.fcls-1{fill:#202e3b;fill-rule:evenodd}</style></defs><path d="M2.873 19L13 9.5 2.873 0 0 2.695 7.254 9.5 0 16.305 2.873 19z" class="fcls-1"/></svg><svg preserveAspectRatio="xMidYMid" width="7" height="11" viewBox="0 0 7 11" id="icon__arrow--right-catalog" y="198"><defs><style>.gcls-1{fill:#202e3b;fill-rule:evenodd}</style></defs><path d="M1.547 11L7 5.5 1.547 0 0 1.56 3.906 5.5 0 9.44 1.547 11z" class="gcls-1"/></svg><svg preserveAspectRatio="xMidYMid" width="23" height="17" viewBox="0 0 23 17" id="icon__contacts--mail" y="209"><defs><style>.hcls-1{fill:#354b60;fill-rule:evenodd}</style></defs><path d="M23 14.167c0 .496-.142.957-.37 1.362L15.37 7.52l7.182-6.194c.28.437.448.95.448 1.505v11.334zm-11.5-5.19l9.995-8.62c-.41-.22-.872-.357-1.37-.357H2.875c-.5 0-.96.136-1.37.357l9.995 8.62zm2.787-.523l-2.314 1.997c-.135.117-.304.175-.473.175-.17 0-.338-.058-.473-.174L8.713 8.455l-7.354 8.11c.44.273.956.436 1.515.436h17.25c.56 0 1.075-.163 1.516-.436l-7.353-8.11zM.447 1.328C.168 1.765 0 2.278 0 2.833v11.334c0 .496.14.957.37 1.362l7.26-8.01L.448 1.33z" class="hcls-1"/></svg><svg preserveAspectRatio="xMidYMid" width="20" height="20" viewBox="0 0 20 20" id="icon__contacts--phone" y="226"><defs><style>.icls-1{fill:#354b60;fill-rule:evenodd}</style></defs><path d="M18.89 13.89c-1.334 0-2.668-.223-4-.668-.334-.11-.78 0-1.112.222l-2.445 2.445C8.223 14.332 5.667 11.666 4 8.555L6.444 6.11c.334-.332.445-.777.223-1.11-.334-1.222-.556-2.556-.556-3.89C6.11.445 5.668 0 5 0H1.11C.445 0 0 .444 0 1.11 0 11.557 8.444 20 18.89 20c.666 0 1.11-.444 1.11-1.11V15c0-.667-.444-1.11-1.11-1.11zM17.777 10H20c0-5.556-4.444-10-10-10v2.222c4.333 0 7.778 3.445 7.778 7.778zm-4.445 0h2.223c0-3.11-2.445-5.556-5.556-5.556v2.223c1.89 0 3.333 1.444 3.333 3.333z" class="icls-1"/></svg><svg preserveAspectRatio="xMidYMid" width="47" height="36" viewBox="0 0 47 36" id="icon__logo--black" y="246"><defs><style>.jcls-1{fill:#000;fill-rule:evenodd}</style></defs><path d="M45.312 29.844h-4.25c-.932 0-1.687-.756-1.687-1.688 0-.932.755-1.687 1.687-1.687h4.25c.932 0 1.688.754 1.688 1.686 0 .932-.756 1.688-1.688 1.688zm-4.81-5.024c-1.692.052-1.836.693-2.02.803-3.538-4.322-7.423-3.154-8.268-3.037-.19-1.38 0-2.74 0-2.74v-9.148h12.35l3.57 5.35v8.772h-5.632zm3.033-8.773L41.75 13.16h-4.98l-.004 2.887v3.798h6.77v-3.798zm-15-7.06v13.961c-1.905.418-3.604 3.012-4.2 5.19h-6.163c-1.308-3.94-6.493-6.884-15.79-9.25v-4.873H0v-3.317h24.547l2.364-4.92h18.574l-2.137 3.21h-14.81zM9.91 9.024v.016H2.815l2.826-2.514h1.976l1.1-1.263v-.02h.017l.978-1.124h2.846L16.02 0h3.394l1.743 3.263h2.804l.894 2.086h.008l-1.79 3.674H9.91zm.35 15.582c3.186 0 5.768 2.55 5.768 5.697 0 3.146-2.582 5.697-5.767 5.697-3.184 0-5.766-2.55-5.766-5.697 0-3.146 2.582-5.697 5.767-5.697zm.082 7.275c.987 0 1.787-.79 1.787-1.764 0-.975-.8-1.765-1.788-1.765-.987 0-1.787.79-1.787 1.766 0 .975.8 1.765 1.787 1.765zm21.736-7.286c3.184 0 5.766 2.553 5.766 5.703 0 3.15-2.582 5.703-5.766 5.703s-5.766-2.553-5.766-5.703c0-3.15 2.582-5.703 5.766-5.703zM32.156 32c.967 0 1.75-.77 1.75-1.72 0-.948-.783-1.717-1.75-1.717-.966 0-1.75.77-1.75 1.718 0 .95.784 1.72 1.75 1.72z" class="jcls-1"/></svg><svg preserveAspectRatio="xMidYMid" width="47" height="36" viewBox="0 0 47 36" id="icon__logo--white" y="282"><defs><style>.kcls-1{fill:#fff;fill-rule:evenodd}</style></defs><path d="M45.312 29.844h-4.25c-.932 0-1.687-.756-1.687-1.688 0-.932.755-1.687 1.687-1.687h4.25c.932 0 1.688.754 1.688 1.686 0 .932-.756 1.688-1.688 1.688zm-4.81-5.024c-1.692.05-1.836.694-2.02.803-3.538-4.323-7.423-3.154-8.268-3.037-.19-1.38 0-2.74 0-2.74v-9.148h12.35l3.57 5.35v8.772h-5.632zm3.033-8.772l-1.786-2.89h-4.98l-.004 2.89v3.798h6.77v-3.798zm-15-7.06v13.96c-1.905.418-3.604 3.012-4.2 5.19h-6.163c-1.308-3.94-6.493-6.884-15.79-9.25v-4.873H0v-3.317h24.547l2.364-4.92h18.574l-2.137 3.21h-14.81zM9.91 9.023v.016H2.815l2.826-2.514h1.976l1.1-1.263v-.02h.017l.978-1.124h2.846L16.02 0h3.394l1.743 3.263h2.804l.894 2.086h.008l-1.79 3.674H9.91zm.35 15.582c3.186 0 5.768 2.55 5.768 5.697 0 3.146-2.582 5.697-5.767 5.697-3.184 0-5.766-2.55-5.766-5.697 0-3.146 2.582-5.697 5.767-5.697zm.082 7.275c.987 0 1.787-.79 1.787-1.764 0-.975-.8-1.765-1.788-1.765-.987 0-1.787.79-1.787 1.766 0 .975.8 1.765 1.787 1.765zm21.736-7.286c3.184 0 5.766 2.553 5.766 5.703 0 3.15-2.582 5.703-5.766 5.703s-5.766-2.553-5.766-5.703c0-3.15 2.582-5.703 5.766-5.703zM32.156 32c.967 0 1.75-.77 1.75-1.72 0-.948-.783-1.718-1.75-1.718-.966 0-1.75.77-1.75 1.72S31.19 32 32.156 32z" class="kcls-1"/></svg><svg preserveAspectRatio="xMidYMid" width="17" height="18" viewBox="0 0 17 18" id="icon__tech-types--download" y="318"><defs><style>.lcls-1{fill:#fff;fill-rule:evenodd}</style></defs><path d="M15.818 17.993H1.182c-.654 0-1.182-.54-1.182-1.207V11.47h2.36v4.11h12.28v-4.11H17v5.316c0 .668-.528 1.207-1.182 1.207zm-6.97-6.896c-.288.297-.564-.035-.564-.035l-3.38-4.18s-.513-.496.044-.496h1.904v-.85V.304s-.075-.296.36-.296h2.68c.315 0 .308.25.308.25V6.26h1.757c.677 0 .168.52.168.52S9.25 10.686 8.85 11.096z" class="lcls-1"/></svg><svg preserveAspectRatio="xMidYMid" width="31" height="24" viewBox="0 0 31 24" id="icon__tractor--left" y="336"><defs><style>.mcls-1{fill:#000;fill-rule:evenodd}</style></defs><path d="M29.43 9.343v3.25c-6.133 1.576-9.553 3.54-10.416 6.165H14.95c-.394-1.452-1.514-3.18-2.772-3.46V5.992h-9.77L1 3.85h12.25l1.56 3.282H31v2.21h-1.57zm-4.966-3.327h-8.682l-1.18-2.45h.005l.59-1.39h1.85L18.194 0h2.238l2.283 2.746h1.878l.644.75h.012v.012l.725.843h1.303l1.865 1.677h-4.68v-.01zM11.07 7.132v6.098s.126.907 0 1.828c-.555-.08-3.12-.858-5.452 2.024-.12-.073-.216-.5-1.332-.535H.57v-5.849l2.356-3.566h8.145zM2.287 13.23H6.75v-2.532l-.002-1.925H3.463l-1.177 1.925v2.532zm1.63 4.416c.615 0 1.113.503 1.113 1.125s-.5 1.126-1.114 1.126H1.113C.498 19.896 0 19.392 0 18.77c0-.62.498-1.124 1.113-1.124h2.803zm5.926-1.25c2.1 0 3.803 1.702 3.803 3.802S11.942 24 9.842 24c-2.1 0-3.803-1.702-3.803-3.802s1.702-3.802 3.802-3.802zm-.05 4.937c.636 0 1.153-.513 1.153-1.145 0-.633-.517-1.146-1.154-1.146-.637 0-1.154.513-1.154 1.146 0 .632.517 1.145 1.155 1.145zm14.44-4.93c2.1 0 3.804 1.702 3.804 3.8 0 2.097-1.703 3.797-3.804 3.797-2.1 0-3.803-1.7-3.803-3.798 0-2.097 1.7-3.798 3.802-3.798zm-.053 4.85c.65 0 1.177-.526 1.177-1.176 0-.65-.528-1.177-1.178-1.177-.652 0-1.18.527-1.18 1.177s.528 1.177 1.18 1.177z" class="mcls-1"/></svg></svg>