<svg xmlns="http://www.w3.org/2000/svg" preserveAspectRatio="xMidYMid" width="31" height="24" viewBox="0 0 31 24"><defs><style>.cls-1 { fill: #000; fill-rule: evenodd; }</style></defs><path d="M29.43 9.343v3.25c-6.133 1.576-9.553 3.54-10.416 6.165H14.95c-.394-1.452-1.514-3.18-2.772-3.46V5.992h-9.77L1 3.85h12.25l1.56 3.282H31v2.21h-1.57zm-4.966-3.327h-8.682l-1.18-2.45h.005l.59-1.39h1.85L18.194 0h2.238l2.283 2.746h1.878l.644.75h.012v.012l.725.843h1.303l1.865 1.677h-4.68v-.01zM11.07 7.132v6.098s.126.907 0 1.828c-.555-.08-3.12-.858-5.452 2.024-.12-.073-.216-.5-1.332-.535H.57v-5.849l2.356-3.566h8.145zM2.287 13.23H6.75v-2.532l-.002-1.925H3.463l-1.177 1.925v2.532zm1.63 4.416c.615 0 1.113.503 1.113 1.125s-.5 1.126-1.114 1.126H1.113C.498 19.896 0 19.392 0 18.77c0-.62.498-1.124 1.113-1.124h2.803zm5.926-1.25c2.1 0 3.803 1.702 3.803 3.802S11.942 24 9.842 24c-2.1 0-3.803-1.702-3.803-3.802s1.702-3.802 3.802-3.802zm-.05 4.937c.636 0 1.153-.513 1.153-1.145 0-.633-.517-1.146-1.154-1.146-.637 0-1.154.513-1.154 1.146 0 .632.517 1.145 1.155 1.145zm14.44-4.93c2.1 0 3.804 1.702 3.804 3.8 0 2.097-1.703 3.797-3.804 3.797-2.1 0-3.803-1.7-3.803-3.798 0-2.097 1.7-3.798 3.802-3.798zm-.053 4.85c.65 0 1.177-.526 1.177-1.176 0-.65-.528-1.177-1.178-1.177-.652 0-1.18.527-1.18 1.177s.528 1.177 1.18 1.177z" class="cls-1"/></svg>