<svg xmlns="http://www.w3.org/2000/svg" preserveAspectRatio="xMidYMid" width="23" height="17" viewBox="0 0 23 17"><defs><style>.cls-1 { fill: #354b60; fill-rule: evenodd; }</style></defs><path d="M23 14.167c0 .496-.142.957-.37 1.362L15.37 7.52l7.182-6.194c.28.437.448.95.448 1.505v11.334zm-11.5-5.19l9.995-8.62c-.41-.22-.872-.357-1.37-.357H2.875c-.5 0-.96.136-1.37.357l9.995 8.62zm2.787-.523l-2.314 1.997c-.135.117-.304.175-.473.175-.17 0-.338-.058-.473-.174L8.713 8.455l-7.354 8.11c.44.273.956.436 1.515.436h17.25c.56 0 1.075-.163 1.516-.436l-7.353-8.11zM.447 1.328C.168 1.765 0 2.278 0 2.833v11.334c0 .496.14.957.37 1.362l7.26-8.01L.448 1.33z" class="cls-1"/></svg>