<svg xmlns="http://www.w3.org/2000/svg" preserveAspectRatio="xMidYMid" width="17" height="18" viewBox="0 0 17 18"><defs><style>.cls-1 { fill: #fff; fill-rule: evenodd; }</style></defs><path d="M15.818 17.993H1.182c-.654 0-1.182-.54-1.182-1.207V11.47h2.36v4.11h12.28v-4.11H17v5.316c0 .668-.528 1.207-1.182 1.207zm-6.97-6.896c-.288.297-.564-.035-.564-.035l-3.38-4.18s-.513-.496.044-.496h1.904v-.85V.304s-.075-.296.36-.296h2.68c.315 0 .308.25.308.25V6.26h1.757c.677 0 .168.52.168.52S9.25 10.686 8.85 11.096z" class="cls-1"/></svg>