<svg xmlns="http://www.w3.org/2000/svg" preserveAspectRatio="xMidYMid" width="20" height="20" viewBox="0 0 20 20"><defs><style>.cls-1 { fill: #354b60; fill-rule: evenodd; }</style></defs><path d="M18.89 13.89c-1.334 0-2.668-.223-4-.668-.334-.11-.78 0-1.112.222l-2.445 2.445C8.223 14.332 5.667 11.666 4 8.555L6.444 6.11c.334-.332.445-.777.223-1.11-.334-1.222-.556-2.556-.556-3.89C6.11.445 5.668 0 5 0H1.11C.445 0 0 .444 0 1.11 0 11.557 8.444 20 18.89 20c.666 0 1.11-.444 1.11-1.11V15c0-.667-.444-1.11-1.11-1.11zM17.777 10H20c0-5.556-4.444-10-10-10v2.222c4.333 0 7.778 3.445 7.778 7.778zm-4.445 0h2.223c0-3.11-2.445-5.556-5.556-5.556v2.223c1.89 0 3.333 1.444 3.333 3.333z" class="cls-1"/></svg>